<mxfile host="Electron" modified="2024-06-20T17:52:14.802Z" agent="Mozilla/5.0 (Macintosh; Intel Mac OS X 10_15_7) AppleWebKit/537.36 (KHTML, like Gecko) draw.io/24.4.8 Chrome/124.0.6367.207 Electron/30.0.6 Safari/537.36" etag="NmnxWh5_UGReON753UDG" version="24.4.8" type="device" pages="3">
  <diagram name="Page-1" id="PhsYlqNNp8KL1j1fjAch">
    <mxGraphModel dx="1313" dy="563" grid="1" gridSize="10" guides="1" tooltips="1" connect="1" arrows="1" fold="1" page="1" pageScale="1" pageWidth="1100" pageHeight="850" math="0" shadow="0">
      <root>
        <mxCell id="0" />
        <mxCell id="1" parent="0" />
        <mxCell id="hc_kxFIJCYGyi10B1ufG-4" style="edgeStyle=orthogonalEdgeStyle;rounded=0;orthogonalLoop=1;jettySize=auto;html=1;exitX=1;exitY=0.5;exitDx=0;exitDy=0;entryX=0;entryY=0.5;entryDx=0;entryDy=0;strokeWidth=2;fontFamily=Helvetica;" parent="1" source="hc_kxFIJCYGyi10B1ufG-1" target="hc_kxFIJCYGyi10B1ufG-2" edge="1">
          <mxGeometry relative="1" as="geometry" />
        </mxCell>
        <mxCell id="hc_kxFIJCYGyi10B1ufG-5" style="edgeStyle=orthogonalEdgeStyle;rounded=0;orthogonalLoop=1;jettySize=auto;html=1;exitX=1;exitY=0.5;exitDx=0;exitDy=0;entryX=0;entryY=0.5;entryDx=0;entryDy=0;strokeWidth=2;fontFamily=Helvetica;" parent="1" source="hc_kxFIJCYGyi10B1ufG-1" target="hc_kxFIJCYGyi10B1ufG-3" edge="1">
          <mxGeometry relative="1" as="geometry" />
        </mxCell>
        <mxCell id="hc_kxFIJCYGyi10B1ufG-1" value="rhi::Instance" style="rounded=0;whiteSpace=wrap;html=1;fontFamily=Helvetica;shadow=1;" parent="1" vertex="1">
          <mxGeometry x="40" y="200" width="120" height="40" as="geometry" />
        </mxCell>
        <mxCell id="hc_kxFIJCYGyi10B1ufG-18" style="edgeStyle=orthogonalEdgeStyle;rounded=0;orthogonalLoop=1;jettySize=auto;html=1;exitX=1;exitY=0.5;exitDx=0;exitDy=0;entryX=0;entryY=0.5;entryDx=0;entryDy=0;fontFamily=Helvetica;" parent="1" source="hc_kxFIJCYGyi10B1ufG-2" target="hc_kxFIJCYGyi10B1ufG-10" edge="1">
          <mxGeometry relative="1" as="geometry" />
        </mxCell>
        <mxCell id="hc_kxFIJCYGyi10B1ufG-19" style="edgeStyle=orthogonalEdgeStyle;rounded=0;orthogonalLoop=1;jettySize=auto;html=1;exitX=1;exitY=0.5;exitDx=0;exitDy=0;entryX=0;entryY=0.5;entryDx=0;entryDy=0;fontFamily=Helvetica;" parent="1" source="hc_kxFIJCYGyi10B1ufG-2" target="hc_kxFIJCYGyi10B1ufG-12" edge="1">
          <mxGeometry relative="1" as="geometry" />
        </mxCell>
        <mxCell id="hc_kxFIJCYGyi10B1ufG-20" style="edgeStyle=orthogonalEdgeStyle;rounded=0;orthogonalLoop=1;jettySize=auto;html=1;exitX=1;exitY=0.5;exitDx=0;exitDy=0;entryX=0;entryY=0.5;entryDx=0;entryDy=0;fontFamily=Helvetica;" parent="1" source="hc_kxFIJCYGyi10B1ufG-2" target="hc_kxFIJCYGyi10B1ufG-14" edge="1">
          <mxGeometry relative="1" as="geometry" />
        </mxCell>
        <mxCell id="hc_kxFIJCYGyi10B1ufG-21" style="edgeStyle=orthogonalEdgeStyle;rounded=0;orthogonalLoop=1;jettySize=auto;html=1;exitX=1;exitY=0.5;exitDx=0;exitDy=0;entryX=0;entryY=0.5;entryDx=0;entryDy=0;fontFamily=Helvetica;" parent="1" source="hc_kxFIJCYGyi10B1ufG-2" target="hc_kxFIJCYGyi10B1ufG-15" edge="1">
          <mxGeometry relative="1" as="geometry" />
        </mxCell>
        <mxCell id="hc_kxFIJCYGyi10B1ufG-22" style="edgeStyle=orthogonalEdgeStyle;rounded=0;orthogonalLoop=1;jettySize=auto;html=1;exitX=1;exitY=0.5;exitDx=0;exitDy=0;entryX=0;entryY=0.5;entryDx=0;entryDy=0;fontFamily=Helvetica;" parent="1" source="hc_kxFIJCYGyi10B1ufG-2" target="hc_kxFIJCYGyi10B1ufG-13" edge="1">
          <mxGeometry relative="1" as="geometry" />
        </mxCell>
        <mxCell id="hc_kxFIJCYGyi10B1ufG-23" style="edgeStyle=orthogonalEdgeStyle;rounded=0;orthogonalLoop=1;jettySize=auto;html=1;exitX=1;exitY=0.5;exitDx=0;exitDy=0;entryX=0;entryY=0.5;entryDx=0;entryDy=0;fontFamily=Helvetica;" parent="1" source="hc_kxFIJCYGyi10B1ufG-2" target="hc_kxFIJCYGyi10B1ufG-16" edge="1">
          <mxGeometry relative="1" as="geometry" />
        </mxCell>
        <mxCell id="hc_kxFIJCYGyi10B1ufG-2" value="rhi::Device [0]" style="rounded=0;whiteSpace=wrap;html=1;fontFamily=Helvetica;shadow=1;" parent="1" vertex="1">
          <mxGeometry x="240" y="140" width="120" height="40" as="geometry" />
        </mxCell>
        <mxCell id="hc_kxFIJCYGyi10B1ufG-3" value="rhi::Device&amp;nbsp;&amp;nbsp;[n - 1]" style="rounded=0;whiteSpace=wrap;html=1;fontFamily=Helvetica;shadow=1;" parent="1" vertex="1">
          <mxGeometry x="240" y="260" width="120" height="40" as="geometry" />
        </mxCell>
        <mxCell id="hc_kxFIJCYGyi10B1ufG-7" value="&lt;font style=&quot;font-size: 18px;&quot;&gt;...&lt;/font&gt;" style="text;html=1;align=center;verticalAlign=middle;whiteSpace=wrap;rounded=0;fontFamily=Helvetica;fontSize=18;rotation=90;" parent="1" vertex="1">
          <mxGeometry x="282.5" y="207.5" width="45" height="20" as="geometry" />
        </mxCell>
        <mxCell id="hc_kxFIJCYGyi10B1ufG-10" value="&lt;font&gt;rhi::Buffer&lt;/font&gt;" style="rounded=1;whiteSpace=wrap;html=1;fontFamily=Helvetica;align=center;" parent="1" vertex="1">
          <mxGeometry x="440" y="70" width="100" height="20" as="geometry" />
        </mxCell>
        <mxCell id="hc_kxFIJCYGyi10B1ufG-12" value="&lt;font&gt;rhi::Texture&lt;/font&gt;" style="rounded=1;whiteSpace=wrap;html=1;fontFamily=Helvetica;" parent="1" vertex="1">
          <mxGeometry x="440" y="100" width="100" height="20" as="geometry" />
        </mxCell>
        <mxCell id="hc_kxFIJCYGyi10B1ufG-13" value="&lt;font&gt;rhi::Pipeline&lt;/font&gt;" style="rounded=1;whiteSpace=wrap;html=1;fontFamily=Helvetica;" parent="1" vertex="1">
          <mxGeometry x="440" y="200" width="100" height="20" as="geometry" />
        </mxCell>
        <mxCell id="hc_kxFIJCYGyi10B1ufG-14" value="&lt;font&gt;rhi::Sampler&lt;/font&gt;" style="rounded=1;whiteSpace=wrap;html=1;fontFamily=Helvetica;" parent="1" vertex="1">
          <mxGeometry x="440" y="130" width="100" height="20" as="geometry" />
        </mxCell>
        <mxCell id="hc_kxFIJCYGyi10B1ufG-15" value="&lt;font&gt;rhi::Swapchain&lt;/font&gt;" style="rounded=1;whiteSpace=wrap;html=1;fontFamily=Helvetica;" parent="1" vertex="1">
          <mxGeometry x="440" y="170" width="100" height="20" as="geometry" />
        </mxCell>
        <mxCell id="hc_kxFIJCYGyi10B1ufG-16" value="&lt;font&gt;&lt;b&gt;rhi::FrameGraph&lt;/b&gt;&lt;/font&gt;" style="rounded=1;whiteSpace=wrap;html=1;fontFamily=Helvetica;fillColor=#dae8fc;strokeColor=#6c8ebf;" parent="1" vertex="1">
          <mxGeometry x="440" y="230" width="130" height="20" as="geometry" />
        </mxCell>
        <mxCell id="hc_kxFIJCYGyi10B1ufG-25" value="&lt;font style=&quot;font-size: 14px;&quot;&gt;...&lt;/font&gt;" style="text;html=1;align=center;verticalAlign=middle;whiteSpace=wrap;rounded=0;fontFamily=Helvetica;" parent="1" vertex="1">
          <mxGeometry x="540" y="70" width="40" height="20" as="geometry" />
        </mxCell>
        <mxCell id="hc_kxFIJCYGyi10B1ufG-26" value="&lt;font style=&quot;font-size: 14px;&quot;&gt;...&lt;/font&gt;" style="text;html=1;align=center;verticalAlign=middle;whiteSpace=wrap;rounded=0;fontFamily=Helvetica;" parent="1" vertex="1">
          <mxGeometry x="540" y="100" width="40" height="20" as="geometry" />
        </mxCell>
        <mxCell id="hc_kxFIJCYGyi10B1ufG-27" value="&lt;font style=&quot;font-size: 14px;&quot;&gt;...&lt;/font&gt;" style="text;html=1;align=center;verticalAlign=middle;whiteSpace=wrap;rounded=0;fontFamily=Helvetica;" parent="1" vertex="1">
          <mxGeometry x="540" y="130" width="40" height="20" as="geometry" />
        </mxCell>
        <mxCell id="hc_kxFIJCYGyi10B1ufG-28" value="&lt;font style=&quot;font-size: 14px;&quot;&gt;...&lt;/font&gt;" style="text;html=1;align=center;verticalAlign=middle;whiteSpace=wrap;rounded=0;fontFamily=Helvetica;" parent="1" vertex="1">
          <mxGeometry x="540" y="170" width="40" height="20" as="geometry" />
        </mxCell>
        <mxCell id="hc_kxFIJCYGyi10B1ufG-29" value="&lt;font style=&quot;font-size: 14px;&quot;&gt;...&lt;/font&gt;" style="text;html=1;align=center;verticalAlign=middle;whiteSpace=wrap;rounded=0;fontFamily=Helvetica;" parent="1" vertex="1">
          <mxGeometry x="540" y="200" width="40" height="20" as="geometry" />
        </mxCell>
        <mxCell id="hc_kxFIJCYGyi10B1ufG-30" value="&lt;font style=&quot;font-size: 14px;&quot;&gt;...&lt;/font&gt;" style="text;html=1;align=center;verticalAlign=middle;whiteSpace=wrap;rounded=0;fontFamily=Helvetica;" parent="1" vertex="1">
          <mxGeometry x="710" y="230" width="40" height="20" as="geometry" />
        </mxCell>
        <mxCell id="sDPLcSCPgWExPUwMxDIE-1" value="&lt;font&gt;rhi::CommandBuffer&lt;/font&gt;" style="rounded=1;whiteSpace=wrap;html=1;fontFamily=Helvetica;" vertex="1" parent="1">
          <mxGeometry x="580" y="230" width="130" height="20" as="geometry" />
        </mxCell>
      </root>
    </mxGraphModel>
  </diagram>
  <diagram id="5n2Pncip32MzaqcRd-a0" name="Page-2">
    <mxGraphModel dx="2954" dy="1267" grid="1" gridSize="10" guides="1" tooltips="1" connect="1" arrows="1" fold="1" page="1" pageScale="1" pageWidth="1100" pageHeight="850" math="0" shadow="0">
      <root>
        <mxCell id="0" />
        <mxCell id="1" parent="0" />
        <mxCell id="MxFQi6MhoZSpaD1BqIp7-1" value="&lt;font style=&quot;font-size: 10px;&quot;&gt;&lt;u style=&quot;font-size: 10px;&quot;&gt;GraphicsAPI&lt;/u&gt;&lt;/font&gt;&lt;div style=&quot;font-size: 10px;&quot;&gt;&lt;font style=&quot;font-size: 10px;&quot;&gt;&amp;nbsp; - Vulkan&lt;/font&gt;&lt;/div&gt;&lt;div style=&quot;font-size: 10px;&quot;&gt;&lt;font style=&quot;font-size: 10px;&quot;&gt;&amp;nbsp; - ...&lt;/font&gt;&lt;/div&gt;&lt;div style=&quot;font-size: 10px;&quot;&gt;&lt;font style=&quot;font-size: 10px;&quot;&gt;&lt;u style=&quot;font-size: 10px;&quot;&gt;ValidationLevel&lt;/u&gt;&lt;/font&gt;&lt;/div&gt;&lt;div style=&quot;font-size: 10px;&quot;&gt;&lt;font style=&quot;font-size: 10px;&quot;&gt;&amp;nbsp; - None&lt;/font&gt;&lt;/div&gt;&lt;div style=&quot;font-size: 10px;&quot;&gt;&lt;font style=&quot;font-size: 10px;&quot;&gt;&amp;nbsp; - DebugInfoOnly&lt;/font&gt;&lt;/div&gt;&lt;div style=&quot;font-size: 10px;&quot;&gt;&lt;font style=&quot;font-size: 10px;&quot;&gt;&amp;nbsp; - Basic&lt;/font&gt;&lt;/div&gt;&lt;div style=&quot;font-size: 10px;&quot;&gt;&lt;font style=&quot;font-size: 10px;&quot;&gt;&amp;nbsp; - Extensive&lt;/font&gt;&lt;/div&gt;" style="text;html=1;align=left;verticalAlign=top;whiteSpace=wrap;rounded=0;fontSize=10;fontFamily=Helvetica;" vertex="1" parent="1">
          <mxGeometry x="40" y="240" width="120" height="130" as="geometry" />
        </mxCell>
      </root>
    </mxGraphModel>
  </diagram>
  <diagram id="dmHwi9EClpHIwLPqMrT_" name="Page-3">
    <mxGraphModel dx="1182" dy="507" grid="1" gridSize="10" guides="1" tooltips="1" connect="1" arrows="1" fold="1" page="1" pageScale="1" pageWidth="1100" pageHeight="850" math="0" shadow="0">
      <root>
        <mxCell id="0" />
        <mxCell id="1" parent="0" />
        <mxCell id="C_F6n9KxV8ClrIqya3jy-13" style="edgeStyle=orthogonalEdgeStyle;rounded=0;orthogonalLoop=1;jettySize=auto;html=1;exitX=1;exitY=0.25;exitDx=0;exitDy=0;entryX=0;entryY=0.5;entryDx=0;entryDy=0;curved=1;" parent="1" source="C_F6n9KxV8ClrIqya3jy-1" target="C_F6n9KxV8ClrIqya3jy-11" edge="1">
          <mxGeometry relative="1" as="geometry">
            <Array as="points">
              <mxPoint x="390" y="130" />
              <mxPoint x="390" y="110" />
            </Array>
          </mxGeometry>
        </mxCell>
        <mxCell id="C_F6n9KxV8ClrIqya3jy-14" style="edgeStyle=orthogonalEdgeStyle;rounded=0;orthogonalLoop=1;jettySize=auto;html=1;exitX=1;exitY=0.75;exitDx=0;exitDy=0;entryX=0;entryY=0.5;entryDx=0;entryDy=0;curved=1;" parent="1" source="C_F6n9KxV8ClrIqya3jy-1" target="C_F6n9KxV8ClrIqya3jy-12" edge="1">
          <mxGeometry relative="1" as="geometry">
            <Array as="points">
              <mxPoint x="390" y="150" />
              <mxPoint x="390" y="170" />
            </Array>
          </mxGeometry>
        </mxCell>
        <mxCell id="C_F6n9KxV8ClrIqya3jy-1" value="&lt;b&gt;Graphics Job&lt;/b&gt;" style="rounded=0;whiteSpace=wrap;html=1;fillColor=#ffe6cc;strokeColor=#d79b00;" parent="1" vertex="1">
          <mxGeometry x="280" y="120" width="90" height="40" as="geometry" />
        </mxCell>
        <mxCell id="C_F6n9KxV8ClrIqya3jy-6" style="edgeStyle=orthogonalEdgeStyle;rounded=0;orthogonalLoop=1;jettySize=auto;html=1;exitX=1;exitY=0.5;exitDx=0;exitDy=0;entryX=0;entryY=0.5;entryDx=0;entryDy=0;" parent="1" source="C_F6n9KxV8ClrIqya3jy-2" target="C_F6n9KxV8ClrIqya3jy-4" edge="1">
          <mxGeometry relative="1" as="geometry" />
        </mxCell>
        <mxCell id="C_F6n9KxV8ClrIqya3jy-2" value="&lt;b&gt;Compute Job&lt;/b&gt;" style="rounded=0;whiteSpace=wrap;html=1;fillColor=#d5e8d4;strokeColor=#82b366;" parent="1" vertex="1">
          <mxGeometry x="70" y="80" width="90" height="40" as="geometry" />
        </mxCell>
        <mxCell id="C_F6n9KxV8ClrIqya3jy-7" style="edgeStyle=orthogonalEdgeStyle;rounded=0;orthogonalLoop=1;jettySize=auto;html=1;exitX=1;exitY=0.5;exitDx=0;exitDy=0;entryX=0;entryY=0.5;entryDx=0;entryDy=0;" parent="1" source="C_F6n9KxV8ClrIqya3jy-3" target="C_F6n9KxV8ClrIqya3jy-5" edge="1">
          <mxGeometry relative="1" as="geometry" />
        </mxCell>
        <mxCell id="C_F6n9KxV8ClrIqya3jy-3" value="&lt;b&gt;Transfer Job&lt;/b&gt;" style="rounded=0;whiteSpace=wrap;html=1;fillColor=#dae8fc;strokeColor=#6c8ebf;" parent="1" vertex="1">
          <mxGeometry x="70" y="160" width="90" height="40" as="geometry" />
        </mxCell>
        <mxCell id="C_F6n9KxV8ClrIqya3jy-8" style="edgeStyle=orthogonalEdgeStyle;rounded=0;orthogonalLoop=1;jettySize=auto;html=1;exitX=1;exitY=0.5;exitDx=0;exitDy=0;entryX=0;entryY=0.25;entryDx=0;entryDy=0;strokeColor=#B3B3B3;curved=1;" parent="1" source="C_F6n9KxV8ClrIqya3jy-4" target="C_F6n9KxV8ClrIqya3jy-1" edge="1">
          <mxGeometry relative="1" as="geometry" />
        </mxCell>
        <mxCell id="C_F6n9KxV8ClrIqya3jy-4" value="&lt;i&gt;Resource&lt;/i&gt;" style="rounded=1;whiteSpace=wrap;html=1;" parent="1" vertex="1">
          <mxGeometry x="180" y="80" width="60" height="40" as="geometry" />
        </mxCell>
        <mxCell id="C_F6n9KxV8ClrIqya3jy-9" style="edgeStyle=orthogonalEdgeStyle;rounded=0;orthogonalLoop=1;jettySize=auto;html=1;exitX=1;exitY=0.5;exitDx=0;exitDy=0;entryX=0;entryY=0.75;entryDx=0;entryDy=0;strokeColor=#B3B3B3;curved=1;" parent="1" source="C_F6n9KxV8ClrIqya3jy-5" target="C_F6n9KxV8ClrIqya3jy-1" edge="1">
          <mxGeometry relative="1" as="geometry" />
        </mxCell>
        <mxCell id="C_F6n9KxV8ClrIqya3jy-5" value="&lt;i&gt;Resource&lt;/i&gt;" style="rounded=1;whiteSpace=wrap;html=1;" parent="1" vertex="1">
          <mxGeometry x="180" y="160" width="60" height="40" as="geometry" />
        </mxCell>
        <mxCell id="C_F6n9KxV8ClrIqya3jy-11" value="&lt;i&gt;Resource&lt;/i&gt;" style="rounded=1;whiteSpace=wrap;html=1;" parent="1" vertex="1">
          <mxGeometry x="410" y="90" width="60" height="40" as="geometry" />
        </mxCell>
        <mxCell id="C_F6n9KxV8ClrIqya3jy-12" value="&lt;i&gt;Resource&lt;/i&gt;" style="rounded=1;whiteSpace=wrap;html=1;" parent="1" vertex="1">
          <mxGeometry x="410" y="150" width="60" height="40" as="geometry" />
        </mxCell>
      </root>
    </mxGraphModel>
  </diagram>
</mxfile>
